<?xml version="1.0" encoding="iso-8859-1"?>
<!-- Uploaded to: SVG Repo, www.svgrepo.com, Generator: SVG Repo Mixer Tools -->
<!DOCTYPE svg PUBLIC "-//W3C//DTD SVG 1.1//EN" "http://www.w3.org/Graphics/SVG/1.1/DTD/svg11.dtd">
<svg fill="#000000" version="1.1" id="Capa_1" xmlns="http://www.w3.org/2000/svg" xmlns:xlink="http://www.w3.org/1999/xlink" 
	 width="800px" height="800px" viewBox="0 0 34.499 34.499"
	 xml:space="preserve">
<g>
	<path d="M28.018,0H6.483C2.902,0,0,2.902,0,6.483v21.533c0,3.582,2.902,6.483,6.483,6.483h21.533c3.582,0,6.483-2.901,6.483-6.483
		V6.483C34.5,2.902,31.598,0,28.018,0z M28.992,8.088c-0.51-0.158-1.139-0.275-1.924-0.275c-1.963,0-2.785,1.53-2.785,3.414v0.98
		h3.846v4.395h-3.807v14.794h-6.004V16.603h-2.511v-4.395h2.511v-0.746c0-2.314,0.707-4.867,2.434-6.435
		c1.49-1.413,3.57-1.923,5.297-1.923c1.334,0,2.354,0.158,3.18,0.393L28.992,8.088z"/>
</g>
</svg>